<?xml version="1.0" encoding="UTF-8"?><svg xmlns="http://www.w3.org/2000/svg" viewBox="0 0 1258.9 1258.9"><defs><style>.y{stroke:#009638;stroke-miterlimit:10;}.y,.a`{fill:#009638;}.aa{fill:none;}.ab{fill:#03ff75;}</style></defs><g id="a"><g id="b"/><g id="c"/><g id="d"/></g><g id="e"><g id="f"/><g id="g"/><g id="h"/></g><g id="i"><g id="j"/><g id="k"/><g id="l"/></g><g id="m"><g id="n"/><g id="o"/><g id="p"/></g><g id="q"><g id="r"/><g id="s"/><g id="t"/></g><g id="u"><g id="v"/><g id="w"/><g id="x"><circle class="a`" cx="629.45" cy="629.45" r="629.45"/><circle class="ab" cx="629.45" cy="629.45" r="501.17"/><path class="y" d="M620.19,444.26v-53.93h43.85v53.93s93.63,7.11,89.48,116.15h-68.74s3.03-58.66-44.37-59.41c-1.47-.02-2.93-.14-4.39-.28-7.59-.76-36.59-.19-43.68,41.32-8.3,48.59,96,75.74,96,75.74,0,0,64.27,9.59,65.32,98.48s-97.91,102.52-97.91,102.52v49.78h-41.48v-50.37s-102.52,2.96-109.04-119.11h75.26s-1.19,66.37,52.74,62.22,49.78-42.67,49.78-42.67c0,0,8.3-52.74-92.44-76.44-62.72-14.76-71-66.72-68.32-103.84,3.68-50.91,44.33-91.87,95.33-94,.87-.04,1.74-.06,2.62-.08Z"/><g><path class="aa" d="M261.65,545.5c-6.16,27.01-9.42,55.1-9.42,83.95h377.22l-367.8-83.95Z"/><path class="aa" d="M465.79,969.29c25.15,12.16,51.85,21.61,79.71,27.96l83.95-367.8-163.66,339.84Z"/><path class="aa" d="M394.35,924.25c21.95,17.54,45.9,32.69,71.44,45.04l163.66-339.84-235.09,294.8Z"/><path class="aa" d="M252.23,629.45c0,28.85,3.26,56.94,9.42,83.95l367.8-83.95H252.23Z"/><path class="aa" d="M289.61,793.11c12.35,25.54,27.5,49.48,45.04,71.44l294.8-235.09-339.84,163.66Z"/><path class="aa" d="M261.65,713.4c6.36,27.86,15.8,54.56,27.96,79.71l339.84-163.66-367.8,83.95Z"/><path class="aa" d="M334.65,864.54c17.62,22.05,37.66,42.09,59.7,59.7l235.09-294.8-294.8,235.09Z"/><path class="aa" d="M864.54,924.25c22.05-17.62,42.09-37.66,59.7-59.7l-294.8-235.09,235.09,294.8Z"/><path class="aa" d="M924.25,864.54c17.54-21.95,32.69-45.9,45.04-71.44l-339.84-163.66,294.8,235.09Z"/><path class="aa" d="M629.45,629.45l367.8,83.95c6.16-27.01,9.42-55.1,9.42-83.95h-377.22Z"/><path class="aa" d="M969.29,793.11c12.16-25.15,21.61-51.85,27.96-79.71l-367.8-83.95,339.84,163.66Z"/><path class="aa" d="M793.11,969.29c25.54-12.35,49.48-27.5,71.44-45.04l-235.09-294.8,163.66,339.84Z"/><path class="aa" d="M629.45,1006.67c28.85,0,56.94-3.26,83.95-9.42l-83.95-367.8v377.22Z"/><path class="aa" d="M713.4,997.25c27.86-6.36,54.56-15.8,79.71-27.96l-163.66-339.84,83.95,367.8Z"/><path class="aa" d="M545.5,997.25c27.01,6.16,55.1,9.42,83.95,9.42h0v-377.22l-83.95,367.8Z"/><path class="aa" d="M969.29,465.79c-12.35-25.54-27.5-49.48-45.04-71.44l-294.8,235.09,339.84-163.66Z"/><path class="aa" d="M924.25,394.35c-17.62-22.05-37.66-42.09-59.7-59.7l-235.09,294.8,294.8-235.09Z"/><path class="aa" d="M864.54,334.65c-21.95-17.54-45.9-32.69-71.44-45.04l-163.66,339.84,235.09-294.8Z"/><path class="aa" d="M997.25,545.5c-6.36-27.86-15.8-54.56-27.96-79.71l-339.84,163.66,367.8-83.95Z"/><path class="aa" d="M1006.67,629.45c0-28.85-3.26-56.94-9.42-83.95l-367.8,83.95h377.22Z"/><path class="aa" d="M793.11,289.61c-25.15-12.16-51.85-21.61-79.71-27.96l-83.95,367.8,163.66-339.84Z"/><path class="aa" d="M394.35,334.65c-22.05,17.62-42.09,37.66-59.7,59.7l294.8,235.09-235.09-294.8Z"/><path class="aa" d="M465.79,289.61c-25.54,12.35-49.48,27.5-71.44,45.04l235.09,294.8-163.66-339.84Z"/><path class="aa" d="M289.61,465.79c-12.16,25.15-21.61,51.85-27.96,79.71l367.8,83.95-339.84-163.66Z"/><path class="aa" d="M334.65,394.35c-17.54,21.95-32.69,45.9-45.04,71.44l339.84,163.66-294.8-235.09Z"/><path class="aa" d="M629.45,252.23h0c-28.85,0-56.94,3.26-83.95,9.42l83.95,367.8V252.23Z"/><path class="aa" d="M545.5,261.65c-27.86,6.36-54.56,15.8-79.71,27.96l163.66,339.84-83.95-367.8Z"/><path class="aa" d="M713.4,261.65c-27.01-6.16-55.1-9.42-83.95-9.42v377.22l83.95-367.8Z"/><path class="a`" d="M713.4,261.65l14.04-61.5c-31.92-7.26-64.68-10.92-97.98-10.92v63c28.85,0,56.94,3.26,83.95,9.42Z"/><path class="a`" d="M394.35,924.25l-39.39,49.39c25.77,20.6,53.65,38.18,83.43,52.52l27.39-56.88c-25.54-12.35-49.48-27.5-71.44-45.04Z"/><path class="a`" d="M629.45,1006.67c-28.85,0-56.94-3.26-83.95-9.42l-14.04,61.5c31.92,7.26,64.68,10.92,97.98,10.92h0v-63h0Z"/><path class="a`" d="M289.61,793.11l-56.88,27.39c14.34,29.78,31.92,57.67,52.52,83.43l49.39-39.39c-17.54-21.95-32.69-45.9-45.04-71.44Z"/><path class="a`" d="M864.54,924.25l39.39,49.39c12.8-10.23,25.09-21.19,36.8-32.91,11.71-11.71,22.67-24,32.91-36.8l-49.39-39.39c-17.62,22.05-37.66,42.09-59.7,59.7Z"/><path class="a`" d="M252.23,629.45h-63c0,33.31,3.66,66.06,10.92,97.98l61.5-14.04c-6.16-27.01-9.42-55.1-9.42-83.95Z"/><path class="a`" d="M1058.75,727.43l-61.5-14.04c-6.36,27.86-15.8,54.56-27.96,79.71l56.88,27.39c3.12-6.47,6.09-13.04,8.9-19.68,10.09-23.86,17.99-48.36,23.68-73.38Z"/><path class="a`" d="M713.4,997.25l14.04,61.5c25.02-5.69,49.52-13.59,73.38-23.68,6.65-2.81,13.21-5.78,19.68-8.9l-27.39-56.88c-25.15,12.16-51.85,21.61-79.71,27.96Z"/><path class="a`" d="M969.29,465.79l56.88-27.39c-14.34-29.78-31.92-57.67-52.52-83.43l-49.39,39.39c17.54,21.95,32.69,45.9,45.04,71.44Z"/><path class="a`" d="M864.54,334.65l39.39-49.39c-25.77-20.6-53.65-38.18-83.43-52.52l-27.39,56.88c25.54,12.35,49.48,27.5,71.44,45.04Z"/><path class="a`" d="M1006.67,629.45h63c0-33.31-3.66-66.06-10.92-97.98l-61.5,14.04c6.16,27.01,9.42,55.1,9.42,83.95Z"/><path class="a`" d="M394.35,334.65l-39.39-49.39c-12.8,10.23-25.09,21.19-36.8,32.91-11.71,11.71-22.67,24-32.91,36.8l49.39,39.39c17.62-22.05,37.66-42.09,59.7-59.7Z"/><path class="a`" d="M289.61,465.79l-56.88-27.39c-3.12,6.47-6.09,13.04-8.9,19.68-10.09,23.86-17.99,48.36-23.68,73.38l61.5,14.04c6.36-27.86,15.8-54.56,27.96-79.71Z"/><path class="a`" d="M545.5,261.65l-14.04-61.5c-25.02,5.69-49.52,13.59-73.38,23.68-6.65,2.81-13.21,5.78-19.68,8.9l27.39,56.88c25.15-12.16,51.85-21.61,79.71-27.96Z"/></g></g></g></svg>